<svg xmlns="http://www.w3.org/2000/svg" width="512" height="512" viewBox="0 0 512 512" style="fill: #ce1010;transform: ;msFilter:;"><path d="M426.667 42.667H170.667c-23.531 0 -42.667 19.136 -42.667 42.667v256c0 23.531 19.136 42.667 42.667 42.667h256c23.531 0 42.667 -19.136 42.667 -42.667V85.333c0 -23.531 -19.136 -42.667 -42.667 -42.667M170.667 341.333V85.333h256l0.043 256z"/><path d="M85.333 170.667H42.667v256c0 23.531 19.136 42.667 42.667 42.667h256v-42.667H85.333z"/><path d="m256 256 -21.333 -21.333 -42.667 64h213.333l-85.333 -128z"/></svg>